 http://img11.imageshack.us/img11/4494/flyaway2011.jpg

Country.......: USA
Genre.........: Drama
Date release..: 26.04.2011 [World]
Director......: Janet Grillo
Writers.......: Janet Grillo
Duration......: 80 min.
More..........: http://www.imdb.com/title/tt1697920
Trailer.......: http://www.imdb.com/video/wab/vi983735065
Trailer.......:

Pilot :
The poignant yet humor filled story about a single mother of a teenager severely impacted by autism, forced to reckon with her daughter's future. As her child becomes an adult, what used to work, no longer does. What will sustain her daughter, and herself? A parent-child love story, when love means letting go.

Cats :
JR Bourne   	 ...  	Pete
Beth Broderick 	... 	Jeanne
Denise Dowse 	... 	Susan
Greg Germann 	... 	Tom
Angela Grillo 	... 	Elderly woman
Elaine Hall 	... 	Ms. Quinlan
Zachariah Palmer 	... 	Dylan
Reno 	Reno 	... 	Liz Howell
Ashley Rickards 	... 	Mandy
Jordan Roberts 	... 	Maitre De
Luke Rothschild 	... 	Mr. Lanza
Matt Grillo Russell 	... 	Ice Cream Server
Matthew Antonio Grillo Russell 	... 	Ice Cream Servier
Jonathan Shestack 	... 	Samuels
Jay Sincere 	... 	Assistant to Ms. Howell 

Data Technical :
!!! SAMPLE !!!
Audio.....: English
Subtitles.: None
Format                           : AVI
Format/Info                      : Audio Video Interleave
File size                        : 697 MiB
Duration                         : 1h 20mn
Overall bit rate                 : 1 215 Kbps
Writing application              : VirtualDubMod 1.5.10.2 (build 2540/release)
Writing library                  : VirtualDubMod build 2540/release
Video
ID                               : 0
Format                           : MPEG-4 Visual
Format profile                   : Advanced Simple@L5
Format settings, BVOP            : Yes
Format settings, QPel            : No
Format settings, GMC             : No warppoints
Format settings, Matrix          : Default (H.263)
Muxing mode                      : Packed bitstream
Codec ID                         : XVID
Codec ID/Hint                    : XviD
Duration                         : 1h 20mn
Bit rate                         : 1 073 Kbps
Width                            : 624 pixels
Height                           : 352 pixels
Display aspect ratio             : 16:9
Frame rate                       : 23.976 fps
Color space                      : YUV
Chroma subsampling               : 4:2:0
Bit depth                        : 8 bits
Scan type                        : Progressive
Bits/(Pixel*Frame)               : 0.204
Stream size                      : 616 MiB (88%)
Writing library                  : XviD 64
Audio
ID                               : 1
Format                           : MPEG Audio
Format version                   : Version 1
Format profile                   : Layer 3
Mode                             : Joint stereo
Mode extension                   : MS Stereo
Codec ID                         : 55
Codec ID/Hint                    : MP3
Duration                         : 1h 20mn
Bit rate mode                    : Variable
Bit rate                         : 128 Kbps
Channel(s)                       : 2 channels
Sampling rate                    : 48.0 KHz
Stream size                      : 74.2 MiB (11%)
Alignment                        : Aligned on interleaves
Interleave, duration             : 24 ms (0.58 video frame)
Interleave, preload duration     : 267 ms
Writing library                  : LAME3.90.
Encoding settings                : -m j -V 4 -q 2 -lowpass 17.6 --abr 128

Screen : 
http://img713.imageshack.us/img713/9571/flyaway2011s1.jpg 
http://img850.imageshack.us/img850/453/flyaway2011s2.jpg 
http://img834.imageshack.us/img834/1277/flyaway2011s3.jpg 
http://img705.imageshack.us/img705/3801/flyaway2011s4.jpg 
http://img692.imageshack.us/img692/8631/flyaway2011s5.jpg